<svg width="55" height="55" viewBox="0 0 55 55" fill="none" xmlns="http://www.w3.org/2000/svg">
<rect width="55" height="55" rx="10" fill="#211F1F"/>
<path fill-rule="evenodd" clip-rule="evenodd" d="M27.5 27.5C27.5 24.1173 30.2423 21.375 33.625 21.375C37.0077 21.375 39.75 24.1173 39.75 27.5C39.75 30.8827 37.0077 33.625 33.625 33.625C30.2423 33.625 27.5 30.8827 27.5 27.5Z" fill="#00B9FF"/>
<path fill-rule="evenodd" clip-rule="evenodd" d="M15.25 39.75C15.25 36.3673 17.9923 33.625 21.375 33.625H27.5V39.75C27.5 43.1327 24.7577 45.875 21.375 45.875C17.9923 45.875 15.25 43.1327 15.25 39.75Z" fill="#00D773"/>
<path fill-rule="evenodd" clip-rule="evenodd" d="M27.5 9.125V21.375H33.625C37.0077 21.375 39.75 18.6327 39.75 15.25C39.75 11.8673 37.0077 9.125 33.625 9.125H27.5Z" fill="#FF5C09"/>
<path fill-rule="evenodd" clip-rule="evenodd" d="M15.25 15.25C15.25 18.6327 17.9923 21.375 21.375 21.375H27.5V9.125H21.375C17.9923 9.125 15.25 11.8673 15.25 15.25Z" fill="#FF0022"/>
<path fill-rule="evenodd" clip-rule="evenodd" d="M15.25 27.5C15.25 30.8827 17.9923 33.625 21.375 33.625H27.5V21.375H21.375C17.9923 21.375 15.25 24.1173 15.25 27.5Z" fill="#8C49FF"/>
</svg>
