<svg width="55" height="55" viewBox="0 0 55 55" fill="none" xmlns="http://www.w3.org/2000/svg">
<rect width="55" height="55" rx="10" fill="#330000"/>
<path d="M27.5728 34.7823H18.3412L16.4629 40.1661C16.4107 40.3661 16.206 40.5078 15.9833 40.498H11.3075C11.0409 40.498 10.9476 40.3628 11.0278 40.0924L19.0205 18.8523C19.1005 18.6311 19.1805 18.3791 19.2604 18.0963C19.3649 17.6044 19.4185 17.1043 19.4202 16.603C19.3973 16.4548 19.542 16.324 19.7 16.3448H26.0542C26.2403 16.3448 26.3469 16.4063 26.3739 16.5292L35.4458 40.1292C35.5257 40.3752 35.4457 40.4982 35.206 40.498H30.0106C29.8284 40.5166 29.6544 40.4042 29.611 40.2399L27.5728 34.7823ZM19.7799 30.1361H26.0942C25.0568 26.9469 23.886 23.7995 22.9371 20.5854C21.9133 23.805 20.7963 27.0115 19.7799 30.1361Z" fill="#FF9A01"/>
<path d="M40.8404 20.2535C40.4328 20.2686 40.0263 20.2041 39.6476 20.0643C39.2688 19.9245 38.9263 19.7125 38.6424 19.4422C38.3593 19.1602 38.1394 18.8293 37.9954 18.4686C37.8513 18.1078 37.786 17.7244 37.8031 17.3403C37.7886 16.96 37.8611 16.5812 38.0161 16.2285C38.171 15.8759 38.4049 15.5573 38.7023 15.2937C38.9968 15.0329 39.3445 14.8285 39.7252 14.6924C40.106 14.5563 40.5121 14.4912 40.9203 14.5009C41.8795 14.5009 42.6322 14.7652 43.1783 15.2937C43.454 15.5684 43.6682 15.8906 43.8088 16.2417C43.9494 16.5929 44.0135 16.9662 43.9975 17.3403C44.0142 17.7259 43.9468 18.1107 43.7992 18.4717C43.6516 18.8328 43.4268 19.1628 43.1383 19.4422C42.8367 19.7165 42.4769 19.9302 42.0814 20.0698C41.6859 20.2094 41.2634 20.272 40.8404 20.2535ZM38.0828 40.1291V22.5028C38.0828 22.2816 38.189 22.1709 38.4026 22.1709H43.3182C43.5311 22.1709 43.6377 22.2815 43.6379 22.5028V40.1291C43.6379 40.3751 43.5313 40.4981 43.3182 40.4979H38.4425C38.2028 40.4979 38.0829 40.3749 38.0828 40.1291Z" fill="#FF9A01"/>
</svg>
