<svg width="34" height="34" viewBox="0 0 34 34" fill="none" xmlns="http://www.w3.org/2000/svg">
<path fill-rule="evenodd" clip-rule="evenodd" d="M14.0464 0C6.28875 0 0 6.28873 0 14.0463C0 21.8038 6.28875 28.0926 14.0464 28.0926C17.4648 28.0926 20.5996 26.87 23.0347 24.8405L31.8202 33.626C32.3189 34.1247 33.1274 34.1247 33.6261 33.626C34.1246 33.1273 34.1246 32.3187 33.6261 31.8201L24.8406 23.0346C26.8701 20.5996 28.0927 17.4648 28.0927 14.0463C28.0927 6.28873 21.8039 0 14.0464 0ZM2.55388 14.0463C2.55388 7.69918 7.69922 2.55387 14.0464 2.55387C20.3935 2.55387 25.5388 7.69918 25.5388 14.0463C25.5388 17.2201 24.2539 20.0915 22.1727 22.1726C20.0916 24.2538 17.2202 25.5387 14.0464 25.5387C7.69922 25.5387 2.55388 20.3934 2.55388 14.0463Z" fill="#99887E"/>
</svg>
