<svg width="55" height="55" viewBox="0 0 55 55" fill="none" xmlns="http://www.w3.org/2000/svg">
<rect width="55" height="55" rx="10" fill="#001E36"/>
<path d="M11 39.7839V14.9109C11 14.7417 11.0686 14.645 11.2288 14.645C13.5928 14.645 15.9557 14.5 18.3203 14.5C22.1573 14.5 26.3119 15.8516 27.7681 19.987C28.1113 21.0023 28.2943 22.0417 28.2943 23.1294C28.2943 25.2082 27.8368 26.9244 26.9217 28.2781C24.3656 32.0593 19.9354 32.0005 15.9641 32.0005V39.7598C15.9952 39.9895 15.8051 40.0982 15.621 40.0982H11.2745C11.0915 40.0982 11 40.0015 11 39.7839ZM15.987 19.3102V27.432C17.5616 27.5509 19.2093 27.5638 20.7223 27.0453C22.3926 26.5489 23.3073 25.0593 23.3073 23.2744C23.3537 21.7535 22.5493 20.2942 21.1798 19.7453C19.6851 19.105 17.6005 19.0667 15.987 19.3102Z" fill="#31A8FF"/>
<path d="M42.5624 25.8274C41.8702 25.4516 41.133 25.1767 40.3709 25.0101C39.3916 24.7727 35.5292 23.9413 35.5278 26.022C35.562 27.1836 37.3518 27.7527 38.1426 28.0846C40.9188 29.0665 44.0605 30.8218 43.9987 34.3502C44.0836 38.7427 39.9527 40.4987 36.4116 40.4991C34.5682 40.5188 32.6478 40.2246 30.9607 39.4094C30.7997 39.3215 30.696 39.1337 30.7029 38.9424V34.7393C30.6848 34.5708 30.8603 34.4236 30.9976 34.5448C32.6506 35.5747 34.6099 36.0747 36.5221 36.1014C37.3663 36.1014 39.0393 36.0171 39.0266 34.7393C39.0266 33.5131 37.0252 32.9493 36.2275 32.6378C35.071 32.2125 33.9745 31.6234 32.968 30.8866C31.5613 29.8529 30.6789 28.1956 30.7029 26.3722C30.6947 22.2363 34.4972 20.3799 37.9217 20.379C39.5226 20.3654 41.2418 20.4876 42.732 21.1573C42.9463 21.2223 42.9907 21.4549 42.9898 21.6633V25.5939C43.0034 25.8379 42.7404 25.9209 42.5624 25.8274Z" fill="#31A8FF"/>
</svg>
