<svg width="12" height="12" viewBox="0 0 12 12" fill="none" xmlns="http://www.w3.org/2000/svg">
<path d="M2.62805 1.24959H9.86679L0.182998 10.9334C0.0901035 11.0263 0.0325724 11.1412 0.0104131 11.2613C0.0034737 11.2989 0 11.337 0 11.3752C0 11.5351 0.0609964 11.695 0.182998 11.817C0.213496 11.8475 0.246369 11.8742 0.281007 11.897C0.523527 12.0572 0.853093 12.0305 1.06659 11.817L10.7504 2.13318V9.37194C10.7504 9.71699 11.0302 9.99673 11.3752 9.99673C11.7203 9.99673 12 9.71699 12 9.37194V0.624795C12 0.279725 11.7203 0 11.3752 0H2.62805C2.28299 0 2.00326 0.279725 2.00326 0.624795C2.00326 0.969857 2.28299 1.24959 2.62805 1.24959Z" fill="#99887E"/>
</svg>
